<?xml version="1.0" standalone="no"?>
<!DOCTYPE svg PUBLIC "-//W3C//DTD SVG 1.1//EN" "http://www.w3.org/Graphics/SVG/1.1/DTD/svg11.dtd">
<svg width="100%" height="100%" viewBox="0 0 1100 1024" version="1.1" xmlns="http://www.w3.org/2000/svg" xmlns:xlink="http://www.w3.org/1999/xlink" xml:space="preserve" style="fill-rule:evenodd;clip-rule:evenodd;stroke-linejoin:round;stroke-miterlimit:1.41421;">
    <g id="path2211" transform="matrix(-7.48155,0,-0,7.48155,2828.66,-749.793)">
        <path d="M356.64,236.29C355.26,236.25 352.46,235.6 350.4,234.85C348.35,234.09 344.72,232.14 342.34,230.5L338.01,227.52L334.26,222.95L330.51,218.37L326.87,210.62L323.23,202.86L323.19,193.36L323.14,183.86L324.89,180.46C325.85,178.59 326.64,176.58 326.64,176L326.64,174.94L325.25,176.4C324.49,177.2 321.83,182.57 319.35,188.33L314.83,198.8L320.61,204.72L321.21,207.88C321.53,209.62 321.69,211.68 321.56,212.45C321.43,213.23 321.69,214.72 322.14,215.76L322.96,217.65L321.05,219.07L319.14,220.48L316.64,219.88C315.26,219.55 312.46,218.91 310.4,218.45L306.66,217.64L305.76,218.75C305.27,219.36 304.55,221.37 304.15,223.22L303.43,226.57L299.59,230.41L295.75,234.25L292.22,234.91L288.69,235.58L283.63,234.36L278.56,233.15L272.77,228.88L266.97,224.61L262.87,218.47L258.77,212.33L256.53,206.6L254.29,200.86L254.01,192.36L253.74,183.86L255.94,179.66L258.14,175.45L260.96,173.28L263.79,171.1L267.99,170.63L272.2,170.15L275.96,171.73L279.73,173.3L280.16,172.08C280.39,171.41 281.04,168.75 281.6,166.17L282.62,161.48L282.02,159.92C281.69,159.06 281.04,158.36 280.56,158.36L279.7,158.36L278.68,155.11L277.66,151.86L278.36,157.36L277.25,157.35C276.64,157.34 274.38,156.33 272.23,155.1L268.33,152.86L266.23,150.04L264.14,147.22L264.14,140.21L264.14,133.2L266.09,131.77L268.05,130.34L270.09,132.78C271.22,134.13 273.71,136.15 275.64,137.29L279.14,139.36L282.99,139.36L280.79,141.7L278.59,144.04L277.69,147.19L276.79,150.34L277.74,150.92L278.69,151.51L278.54,150.69C278.47,150.23 278.45,149.03 278.52,148.01L278.64,146.16L281.92,142.88L285.2,139.61L282.09,138.48L278.98,137.36L276.76,134.99L274.53,132.62L276.12,132.01L277.71,131.4L278.3,132.92L278.89,134.45L282.72,136.41C284.83,137.48 286.83,138.36 287.15,138.36C287.48,138.36 286.49,137.28 284.94,135.95L282.14,133.53L282.88,132.79L283.63,132.04L285.77,133.95L287.9,135.86L287.1,133.36C286.65,131.99 286.37,129.81 286.46,128.52C286.55,127.24 286.88,125.78 287.19,125.27C287.5,124.77 288.17,124.36 288.67,124.36L289.59,124.36L289.06,127.11L288.53,129.86L291.29,141.86L295.46,142.17L299.64,142.48L299.64,136.48L299.64,130.48L300.57,129.91L301.49,129.33L302.14,131.36L302.78,133.39L305.35,131.38L307.91,129.36L311.95,129.36L310.35,127.59C309.46,126.62 308.26,124.71 307.67,123.34L306.59,120.86L307.13,123.61L307.68,126.36L306.9,126.36C306.47,126.36 305.55,125.45 304.85,124.33L303.57,122.29L300.82,123.92L298.06,125.54L294.6,124.03L291.14,122.53L294.34,122.45L297.54,122.36L300.09,121.2C301.49,120.56 302.64,119.7 302.64,119.28C302.64,118.87 302.91,117.82 303.25,116.95L303.85,115.36L300.3,115.36L296.76,115.36L296.14,114.36L295.52,113.36L303.64,113.36L303.64,110.55L303.64,107.74L305.68,105.55L307.72,103.36L315.74,103.36L318.64,104.86L321.53,106.36L324.09,109.71L326.64,113.05L326.64,116.63L324.14,118.95L321.64,121.27L321.64,126.36L320.38,126.36L319.12,126.36L317.89,128.33L316.66,130.3L318.51,131.3L320.36,132.29L322.53,129.98L324.69,127.67L324.02,125.77L323.34,123.86L324.51,124.94C325.16,125.53 325.86,126.94 326.08,128.08C326.3,129.23 327.63,131.97 329.02,134.18C330.42,136.39 332.06,138.5 332.66,138.88C333.27,139.26 335.12,141.43 336.77,143.7L339.77,147.84L343.95,149.85L348.14,151.86L352.96,160.68L350.72,162.5L348.47,164.32L344.37,164.05L340.27,163.77L339.87,162.57L339.47,161.36L342.06,161.36L337.14,156.36C334.43,153.61 331.84,151.36 331.38,151.36C330.92,151.36 329.46,152.53 328.14,153.95L325.74,156.54L324.76,155.94L323.78,155.33L323.16,156.33L322.54,157.34L325.25,162.1C326.74,164.72 329.07,167.94 330.42,169.26L332.88,171.66L338.51,171.85L344.14,172.03L349.1,174.4L354.05,176.78L359.74,182.46L365.42,188.15L369.09,195.56L372.75,202.98L375.01,216.14L373.79,221.56L372.58,226.98L369.57,230.64L366.55,234.29L362.84,235.32C360.81,235.89 358.01,236.32 356.64,236.29L356.64,236.29ZM357,233.29L359.87,233.36L363.66,231.23L367.45,229.1L369.3,225L371.14,220.9L371.03,213.88L370.92,206.86L368.68,201.04L366.44,195.22L361.78,189.04L357.12,182.86L352.28,179.62L347.45,176.39L343.63,175.24L339.82,174.1L337.29,174.74L334.75,175.37L341.26,186.12C344.84,192.03 348.86,198.01 350.2,199.42C351.54,200.82 352.64,202.29 352.64,202.67C352.64,203.05 352.17,203.36 351.61,203.36L350.58,203.36L349.96,201.61C349.63,200.65 348.13,198.51 346.65,196.86C345.16,195.21 341.74,190.3 339.04,185.95C336.34,181.59 333.82,177.55 333.43,176.96L332.72,175.88L331.58,177.02L330.43,178.17L335.11,188.65L339.8,199.14L345.64,204.74L345.64,207.61L342.38,204.06L339.13,200.51L334.17,190.44C331.45,184.9 328.9,180.36 328.51,180.36C328.11,180.36 327.25,182 326.6,183.99L325.4,187.63L325.84,195.32L326.29,203.02L329.34,209.44C331.01,212.97 333.81,217.8 335.56,220.16L338.72,224.47L343.25,227.66C345.74,229.42 349.2,231.39 350.95,232.04C352.71,232.68 355.43,233.25 357,233.29L357,233.29ZM288.49,232.28L290.84,232.36L294.31,230.71L297.79,229.06L299.25,226.84C300.05,225.61 301.13,223.12 301.66,221.3C302.18,219.48 302.5,217.9 302.37,217.78C302.24,217.66 297.86,217.24 292.64,216.86C287.41,216.47 282.76,215.93 282.31,215.65L281.48,215.15L282.08,212.75L282.68,210.36L282.05,207.86L281.42,205.36L277.42,205.36L273.42,205.36L274.1,202.67C274.47,201.2 275.87,194.6 277.21,188.01C278.55,181.43 279.53,175.95 279.39,175.85C279.25,175.75 277.61,175.14 275.74,174.51C273.87,173.88 271.12,173.36 269.64,173.36L266.93,173.36L263.64,175.61L260.34,177.86L258.42,181.36L256.5,184.86L256.92,192.86L257.33,200.86L259.97,207.25L262.61,213.65L266.71,218.95L270.8,224.26L275.67,227.39C278.35,229.1 281.8,230.89 283.34,231.35C284.88,231.81 287.2,232.23 288.49,232.28L288.49,232.28ZM301.95,216.22L302.76,216.36L302.45,212.64L302.14,208.91L298.14,208.27C295.94,207.92 292.03,207.36 289.46,207.03L284.78,206.42L284.11,209.49L283.44,212.56L284.45,213.58L285.47,214.59L293.3,215.34C297.61,215.75 301.5,216.15 301.95,216.22L301.95,216.22ZM307.91,216.36L309.95,216.36L308.4,214.61L306.86,212.86L306.17,209.6L305.48,206.35L304.76,206.79L304.04,207.23L304.22,209.55C304.31,210.82 304.72,212.88 305.13,214.11L305.87,216.36L307.91,216.36ZM319.29,212.36C319.48,212.36 319.64,211.24 319.64,209.86L319.64,207.36L317.64,207.36L315.64,207.36L315.64,208.03C315.64,208.4 316.38,209.53 317.29,210.53C318.2,211.54 319.1,212.36 319.29,212.36ZM298.64,206.15L301.14,206.18L293.77,204.23L286.39,202.28L285.85,202.82L285.3,203.36L285.87,203.93C286.19,204.25 288.62,204.87 291.29,205.31C293.96,205.76 297.26,206.14 298.64,206.15ZM314.39,206.35C315.35,206.34 316.71,205.97 317.41,205.52L318.69,204.72L316.6,202.83L314.52,200.94L313.59,202.4C313.08,203.21 312.66,204.43 312.65,205.11L312.64,206.36L314.39,206.35L314.39,206.35ZM304.02,205.36C304.23,205.36 304.63,204.51 304.9,203.47L305.39,201.58L304.53,200.22L303.67,198.86L303.65,202.11C303.65,203.9 303.81,205.36 304.02,205.36ZM280.19,204.36C280.28,204.36 280.16,203.29 279.9,201.97L279.45,199.58L280.95,197.22L282.45,194.86L283.14,186.73L283.83,178.6L282.8,177.97L281.78,177.33L281.29,179.1C281.02,180.07 279.8,185.55 278.59,191.29L276.39,201.71L278.2,203.04C279.2,203.77 280.1,204.36 280.19,204.36L280.19,204.36ZM309.29,202.83C310.03,201.81 310.64,200.62 310.64,200.17L310.64,199.36L308.78,199.36L306.92,199.36L307.42,202.02L307.93,204.68L309.29,202.83ZM298.89,203.25L300.64,203.36L300.64,202.02L300.64,200.68L296.77,199.52C294.65,198.88 291.27,198.36 289.27,198.36L285.64,198.36L285.64,200.29L289.39,201.25C291.45,201.78 294.04,202.42 295.14,202.67C296.24,202.92 297.93,203.18 298.89,203.25L298.89,203.25ZM289.52,197.36L295.64,197.36L295.64,196.38L295.64,195.39L291.56,192.81L287.48,190.24L288.12,186.47L288.76,182.71L287.29,181.49L285.83,180.28L285.26,184.07C284.95,186.16 284.4,190 284.05,192.61L283.41,197.36L289.52,197.36ZM311.25,197.36L312.26,197.36L316.45,188.18L320.65,178.99L319.39,178.19C318.7,177.75 317.3,177.39 316.28,177.38L314.42,177.36L315,175.86L315.58,174.35L311.86,172.03C309.81,170.75 305.28,168.19 301.78,166.34L295.43,162.97L294.05,160.87L292.67,158.77L291.26,150.32L289.84,141.86L289.74,144.28C289.68,145.61 290.14,149.57 290.75,153.09L291.86,159.48L294.17,162.17L296.47,164.86L312.59,173.86L312.61,184.41L312.64,194.96L311.44,196.16L310.24,197.36L311.25,197.36ZM302.44,189.36C302.63,189.36 302.51,188.54 302.2,187.54L301.62,185.72L302.47,179.49L303.32,173.26L301.23,171.78L299.14,170.3L297.85,174.77L296.56,179.24L297.31,183.55L299.71,186.45C301.04,188.05 302.26,189.36 302.44,189.36L302.44,189.36ZM289.44,175.33L289.75,171.44L288.47,169.15L287.19,166.86L286.58,171.86L285.98,176.86L289.14,179.22L289.44,175.33L289.44,175.33ZM283.37,175.36L284.37,175.36L285,170.72C285.35,168.17 285.62,165.13 285.61,163.97L285.58,161.86L284.67,163.42C284.17,164.27 283.45,167.31 283.07,170.17L282.38,175.36L283.37,175.36ZM329.64,174.36L330.64,174.36L330.64,173.3L330.64,172.25L329.64,172.86C329.09,173.2 328.64,173.68 328.64,173.92C328.64,174.17 329.09,174.36 329.64,174.36ZM321.39,169.35L322.64,169.36L322.64,168.41C322.64,167.88 321.49,166.31 320.09,164.91L317.55,162.36L313.79,162.36L310.04,162.36L308.84,161.16C308.18,160.5 307.64,159.65 307.64,159.26L307.64,158.55L311.68,159.1L315.72,159.64L317.17,157.75L318.63,155.86L318.12,153.64L317.61,151.41L320.49,151.98L323.36,152.56L326.46,150.96L329.55,149.36L326.34,144.14C324.58,141.27 321.45,137.23 319.39,135.15L315.64,131.36L312.29,131.36L308.93,131.36L305.55,133.65L302.16,135.93L301.53,139.81L300.9,143.69L301.68,146.28L302.47,148.86L302.55,146.99L302.64,145.12L304.26,146.46L305.87,147.8L305.34,152.97L304.81,158.13L307.97,161.18C309.71,162.86 313.16,165.38 315.64,166.78C318.11,168.19 320.7,169.34 321.39,169.35L321.39,169.35ZM289.2,163.36C289.44,163.36 289.64,162.91 289.64,162.36L289.64,161.36L288.58,161.36L287.52,161.36L288.14,162.36C288.48,162.91 288.95,163.36 289.2,163.36ZM302.3,155.61L302.81,154.36L302.3,153.11L301.8,151.86L301.8,156.86L302.3,155.61ZM346.89,156.25C347.3,156.31 347.64,155.92 347.64,155.39C347.64,154.85 346.5,153.66 345.11,152.75C343.71,151.84 342.35,151.31 342.08,151.58C341.81,151.86 341.87,152.79 342.2,153.66L342.81,155.25L344.47,155.69C345.39,155.93 346.48,156.18 346.89,156.25L346.89,156.25ZM302.14,151.36C302.41,151.36 302.64,151.14 302.64,150.86C302.64,150.59 302.41,150.36 302.14,150.36C301.86,150.36 301.64,150.59 301.64,150.86C301.64,151.14 301.86,151.36 302.14,151.36ZM287.64,141.36L288.97,141.36L288.3,140.7L287.64,140.03L286.97,140.7L286.3,141.36L287.64,141.36ZM307.14,118.36C307.41,118.36 307.64,118.14 307.64,117.86C307.64,117.59 307.41,117.36 307.14,117.36C306.86,117.36 306.64,117.59 306.64,117.86C306.64,118.14 306.86,118.36 307.14,118.36ZM319.53,113.1L319.92,112.01L316.29,108.69L312.67,105.36L310.4,105.41L308.14,105.45L311.84,107.41L315.54,109.36L319.14,114.18L319.53,113.1ZM312.54,113.33L314.14,113.29L311.18,110.87C309.55,109.54 308.01,108.65 307.77,108.9C307.52,109.15 308.13,110.25 309.13,111.36L310.95,113.36L312.54,113.33L312.54,113.33ZM254.89,235.14C251.18,235.04 245.89,234.67 243.14,234.32L238.14,233.68L249.89,233.52L253.608,233.469L261.64,233.36L261.64,235.31L254.89,235.14L254.89,235.14ZM340.14,235.11C336.29,235.12 331.79,234.83 330.14,234.47L327.14,233.81L328.64,233.23L330.14,232.64L347.14,235.1L340.14,235.11L340.14,235.11ZM269.14,233.03C266.012,232.957 261.933,232.805 259.114,232.659C258.463,232.625 257.879,232.592 257.39,232.56L252.64,232.25L252.64,231.31L252.64,230.36L254.39,230.42C255.35,230.45 260.64,231.09 266.14,231.83L276.14,233.19L269.14,233.03L269.14,233.03ZM270.71,130.36C270.3,130.36 269.71,130.1 269.4,129.79L268.82,129.21L270.79,125.52L272.76,121.83L275.95,119.97C277.7,118.94 281.28,117.53 283.89,116.82L288.64,115.54L288.64,116.25C288.64,116.64 286.95,117.55 284.89,118.27C282.83,118.98 279.39,120.75 277.26,122.19L273.38,124.82L272.41,127.59C271.88,129.12 271.11,130.36 270.71,130.36L270.71,130.36Z" style="fill:rgb(235,178,50);fill-rule:nonzero;"/>
    </g>
    <g id="path22111" transform="matrix(-7.48155,0,-0,7.48155,2831.66,-766.793)">
        <path d="M356.64,236.29C355.26,236.25 352.46,235.6 350.4,234.85C348.35,234.09 344.72,232.14 342.34,230.5L338.01,227.52L334.26,222.95L330.51,218.37L326.87,210.62L323.23,202.86L323.19,193.36L323.14,183.86L324.89,180.46C325.85,178.59 326.64,176.58 326.64,176L326.64,174.94L325.25,176.4C324.49,177.2 321.83,182.57 319.35,188.33L314.83,198.8L320.61,204.72L321.21,207.88C321.53,209.62 321.69,211.68 321.56,212.45C321.43,213.23 321.69,214.72 322.14,215.76L322.96,217.65L321.05,219.07L319.14,220.48L316.64,219.88C315.26,219.55 312.46,218.91 310.4,218.45L306.66,217.64L305.76,218.75C305.27,219.36 304.55,221.37 304.15,223.22L303.43,226.57L299.59,230.41L295.75,234.25L292.22,234.91L288.69,235.58L283.63,234.36L278.56,233.15L272.77,228.88L266.97,224.61L262.87,218.47L258.77,212.33L256.53,206.6L254.29,200.86L254.01,192.36L253.74,183.86L255.94,179.66L258.14,175.45L260.96,173.28L263.79,171.1L267.99,170.63L272.2,170.15L275.96,171.73L279.73,173.3L280.16,172.08C280.39,171.41 281.04,168.75 281.6,166.17L282.62,161.48L282.02,159.92C281.69,159.06 281.04,158.36 280.56,158.36L279.7,158.36L278.68,155.11L277.66,151.86L278.36,157.36L277.25,157.35C276.64,157.34 274.38,156.33 272.23,155.1L268.33,152.86L266.23,150.04L264.14,147.22L264.14,140.21L264.14,133.2L266.09,131.77L268.05,130.34L270.09,132.78C271.22,134.13 273.71,136.15 275.64,137.29L279.14,139.36L282.99,139.36L280.79,141.7L278.59,144.04L277.69,147.19L276.79,150.34L277.74,150.92L278.69,151.51L278.54,150.69C278.47,150.23 278.45,149.03 278.52,148.01L278.64,146.16L281.92,142.88L285.2,139.61L282.09,138.48L278.98,137.36L276.76,134.99L274.53,132.62L276.12,132.01L277.71,131.4L278.3,132.92L278.89,134.45L282.72,136.41C284.83,137.48 286.83,138.36 287.15,138.36C287.48,138.36 286.49,137.28 284.94,135.95L282.14,133.53L282.88,132.79L283.63,132.04L285.77,133.95L287.9,135.86L287.1,133.36C286.65,131.99 286.37,129.81 286.46,128.52C286.55,127.24 286.88,125.78 287.19,125.27C287.5,124.77 288.17,124.36 288.67,124.36L289.59,124.36L289.06,127.11L288.53,129.86L291.29,141.86L295.46,142.17L299.64,142.48L299.64,136.48L299.64,130.48L300.57,129.91L301.49,129.33L302.14,131.36L302.78,133.39L305.35,131.38L307.91,129.36L311.95,129.36L310.35,127.59C309.46,126.62 308.26,124.71 307.67,123.34L306.59,120.86L307.13,123.61L307.68,126.36L306.9,126.36C306.47,126.36 305.55,125.45 304.85,124.33L303.57,122.29L300.82,123.92L298.06,125.54L294.6,124.03L291.14,122.53L294.34,122.45L297.54,122.36L300.09,121.2C301.49,120.56 302.64,119.7 302.64,119.28C302.64,118.87 302.91,117.82 303.25,116.95L303.85,115.36L300.3,115.36L296.76,115.36L296.14,114.36L295.52,113.36L303.64,113.36L303.64,110.55L303.64,107.74L305.68,105.55L307.72,103.36L315.74,103.36L318.64,104.86L321.53,106.36L324.09,109.71L326.64,113.05L326.64,116.63L324.14,118.95L321.64,121.27L321.64,126.36L320.38,126.36L319.12,126.36L317.89,128.33L316.66,130.3L318.51,131.3L320.36,132.29L322.53,129.98L324.69,127.67L324.02,125.77L323.34,123.86L324.51,124.94C325.16,125.53 325.86,126.94 326.08,128.08C326.3,129.23 327.63,131.97 329.02,134.18C330.42,136.39 332.06,138.5 332.66,138.88C333.27,139.26 335.12,141.43 336.77,143.7L339.77,147.84L343.95,149.85L348.14,151.86L352.96,160.68L350.72,162.5L348.47,164.32L344.37,164.05L340.27,163.77L339.87,162.57L339.47,161.36L342.06,161.36L337.14,156.36C334.43,153.61 331.84,151.36 331.38,151.36C330.92,151.36 329.46,152.53 328.14,153.95L325.74,156.54L324.76,155.94L323.78,155.33L323.16,156.33L322.54,157.34L325.25,162.1C326.74,164.72 329.07,167.94 330.42,169.26L332.88,171.66L338.51,171.85L344.14,172.03L349.1,174.4L354.05,176.78L359.74,182.46L365.42,188.15L369.09,195.56L372.75,202.98L375.01,216.14L373.79,221.56L372.58,226.98L369.57,230.64L366.55,234.29L362.84,235.32C360.81,235.89 358.01,236.32 356.64,236.29L356.64,236.29ZM357,233.29L359.87,233.36L363.66,231.23L367.45,229.1L369.3,225L371.14,220.9L371.03,213.88L370.92,206.86L368.68,201.04L366.44,195.22L361.78,189.04L357.12,182.86L352.28,179.62L347.45,176.39L343.63,175.24L339.82,174.1L337.29,174.74L334.75,175.37L341.26,186.12C344.84,192.03 348.86,198.01 350.2,199.42C351.54,200.82 352.64,202.29 352.64,202.67C352.64,203.05 352.17,203.36 351.61,203.36L350.58,203.36L349.96,201.61C349.63,200.65 348.13,198.51 346.65,196.86C345.16,195.21 341.74,190.3 339.04,185.95C336.34,181.59 333.82,177.55 333.43,176.96L332.72,175.88L331.58,177.02L330.43,178.17L335.11,188.65L339.8,199.14L345.64,204.74L345.64,207.61L342.38,204.06L339.13,200.51L334.17,190.44C331.45,184.9 328.9,180.36 328.51,180.36C328.11,180.36 327.25,182 326.6,183.99L325.4,187.63L325.84,195.32L326.29,203.02L329.34,209.44C331.01,212.97 333.81,217.8 335.56,220.16L338.72,224.47L343.25,227.66C345.74,229.42 349.2,231.39 350.95,232.04C352.71,232.68 355.43,233.25 357,233.29L357,233.29ZM288.49,232.28L290.84,232.36L294.31,230.71L297.79,229.06L299.25,226.84C300.05,225.61 301.13,223.12 301.66,221.3C302.18,219.48 302.5,217.9 302.37,217.78C302.24,217.66 297.86,217.24 292.64,216.86C287.41,216.47 282.76,215.93 282.31,215.65L281.48,215.15L282.08,212.75L282.68,210.36L282.05,207.86L281.42,205.36L277.42,205.36L273.42,205.36L274.1,202.67C274.47,201.2 275.87,194.6 277.21,188.01C278.55,181.43 279.53,175.95 279.39,175.85C279.25,175.75 277.61,175.14 275.74,174.51C273.87,173.88 271.12,173.36 269.64,173.36L266.93,173.36L263.64,175.61L260.34,177.86L258.42,181.36L256.5,184.86L256.92,192.86L257.33,200.86L259.97,207.25L262.61,213.65L266.71,218.95L270.8,224.26L275.67,227.39C278.35,229.1 281.8,230.89 283.34,231.35C284.88,231.81 287.2,232.23 288.49,232.28L288.49,232.28ZM301.95,216.22L302.76,216.36L302.45,212.64L302.14,208.91L298.14,208.27C295.94,207.92 292.03,207.36 289.46,207.03L284.78,206.42L284.11,209.49L283.44,212.56L284.45,213.58L285.47,214.59L293.3,215.34C297.61,215.75 301.5,216.15 301.95,216.22L301.95,216.22ZM307.91,216.36L309.95,216.36L308.4,214.61L306.86,212.86L306.17,209.6L305.48,206.35L304.76,206.79L304.04,207.23L304.22,209.55C304.31,210.82 304.72,212.88 305.13,214.11L305.87,216.36L307.91,216.36ZM319.29,212.36C319.48,212.36 319.64,211.24 319.64,209.86L319.64,207.36L317.64,207.36L315.64,207.36L315.64,208.03C315.64,208.4 316.38,209.53 317.29,210.53C318.2,211.54 319.1,212.36 319.29,212.36ZM298.64,206.15L301.14,206.18L293.77,204.23L286.39,202.28L285.85,202.82L285.3,203.36L285.87,203.93C286.19,204.25 288.62,204.87 291.29,205.31C293.96,205.76 297.26,206.14 298.64,206.15ZM314.39,206.35C315.35,206.34 316.71,205.97 317.41,205.52L318.69,204.72L316.6,202.83L314.52,200.94L313.59,202.4C313.08,203.21 312.66,204.43 312.65,205.11L312.64,206.36L314.39,206.35L314.39,206.35ZM304.02,205.36C304.23,205.36 304.63,204.51 304.9,203.47L305.39,201.58L304.53,200.22L303.67,198.86L303.65,202.11C303.65,203.9 303.81,205.36 304.02,205.36ZM280.19,204.36C280.28,204.36 280.16,203.29 279.9,201.97L279.45,199.58L280.95,197.22L282.45,194.86L283.14,186.73L283.83,178.6L282.8,177.97L281.78,177.33L281.29,179.1C281.02,180.07 279.8,185.55 278.59,191.29L276.39,201.71L278.2,203.04C279.2,203.77 280.1,204.36 280.19,204.36L280.19,204.36ZM309.29,202.83C310.03,201.81 310.64,200.62 310.64,200.17L310.64,199.36L308.78,199.36L306.92,199.36L307.42,202.02L307.93,204.68L309.29,202.83ZM298.89,203.25L300.64,203.36L300.64,202.02L300.64,200.68L296.77,199.52C294.65,198.88 291.27,198.36 289.27,198.36L285.64,198.36L285.64,200.29L289.39,201.25C291.45,201.78 294.04,202.42 295.14,202.67C296.24,202.92 297.93,203.18 298.89,203.25L298.89,203.25ZM289.52,197.36L295.64,197.36L295.64,196.38L295.64,195.39L291.56,192.81L287.48,190.24L288.12,186.47L288.76,182.71L287.29,181.49L285.83,180.28L285.26,184.07C284.95,186.16 284.4,190 284.05,192.61L283.41,197.36L289.52,197.36ZM311.25,197.36L312.26,197.36L316.45,188.18L320.65,178.99L319.39,178.19C318.7,177.75 317.3,177.39 316.28,177.38L314.42,177.36L315,175.86L315.58,174.35L311.86,172.03C309.81,170.75 305.28,168.19 301.78,166.34L295.43,162.97L294.05,160.87L292.67,158.77L291.26,150.32L289.84,141.86L289.74,144.28C289.68,145.61 290.14,149.57 290.75,153.09L291.86,159.48L294.17,162.17L296.47,164.86L312.59,173.86L312.61,184.41L312.64,194.96L311.44,196.16L310.24,197.36L311.25,197.36ZM302.44,189.36C302.63,189.36 302.51,188.54 302.2,187.54L301.62,185.72L302.47,179.49L303.32,173.26L301.23,171.78L299.14,170.3L297.85,174.77L296.56,179.24L297.31,183.55L299.71,186.45C301.04,188.05 302.26,189.36 302.44,189.36L302.44,189.36ZM289.44,175.33L289.75,171.44L288.47,169.15L287.19,166.86L286.58,171.86L285.98,176.86L289.14,179.22L289.44,175.33L289.44,175.33ZM283.37,175.36L284.37,175.36L285,170.72C285.35,168.17 285.62,165.13 285.61,163.97L285.58,161.86L284.67,163.42C284.17,164.27 283.45,167.31 283.07,170.17L282.38,175.36L283.37,175.36ZM329.64,174.36L330.64,174.36L330.64,173.3L330.64,172.25L329.64,172.86C329.09,173.2 328.64,173.68 328.64,173.92C328.64,174.17 329.09,174.36 329.64,174.36ZM321.39,169.35L322.64,169.36L322.64,168.41C322.64,167.88 321.49,166.31 320.09,164.91L317.55,162.36L313.79,162.36L310.04,162.36L308.84,161.16C308.18,160.5 307.64,159.65 307.64,159.26L307.64,158.55L311.68,159.1L315.72,159.64L317.17,157.75L318.63,155.86L318.12,153.64L317.61,151.41L320.49,151.98L323.36,152.56L326.46,150.96L329.55,149.36L326.34,144.14C324.58,141.27 321.45,137.23 319.39,135.15L315.64,131.36L312.29,131.36L308.93,131.36L305.55,133.65L302.16,135.93L301.53,139.81L300.9,143.69L301.68,146.28L302.47,148.86L302.55,146.99L302.64,145.12L304.26,146.46L305.87,147.8L305.34,152.97L304.81,158.13L307.97,161.18C309.71,162.86 313.16,165.38 315.64,166.78C318.11,168.19 320.7,169.34 321.39,169.35L321.39,169.35ZM289.2,163.36C289.44,163.36 289.64,162.91 289.64,162.36L289.64,161.36L288.58,161.36L287.52,161.36L288.14,162.36C288.48,162.91 288.95,163.36 289.2,163.36ZM302.3,155.61L302.81,154.36L302.3,153.11L301.8,151.86L301.8,156.86L302.3,155.61ZM346.89,156.25C347.3,156.31 347.64,155.92 347.64,155.39C347.64,154.85 346.5,153.66 345.11,152.75C343.71,151.84 342.35,151.31 342.08,151.58C341.81,151.86 341.87,152.79 342.2,153.66L342.81,155.25L344.47,155.69C345.39,155.93 346.48,156.18 346.89,156.25L346.89,156.25ZM302.14,151.36C302.41,151.36 302.64,151.14 302.64,150.86C302.64,150.59 302.41,150.36 302.14,150.36C301.86,150.36 301.64,150.59 301.64,150.86C301.64,151.14 301.86,151.36 302.14,151.36ZM287.64,141.36L288.97,141.36L288.3,140.7L287.64,140.03L286.97,140.7L286.3,141.36L287.64,141.36ZM307.14,118.36C307.41,118.36 307.64,118.14 307.64,117.86C307.64,117.59 307.41,117.36 307.14,117.36C306.86,117.36 306.64,117.59 306.64,117.86C306.64,118.14 306.86,118.36 307.14,118.36ZM319.53,113.1L319.92,112.01L316.29,108.69L312.67,105.36L310.4,105.41L308.14,105.45L311.84,107.41L315.54,109.36L319.14,114.18L319.53,113.1ZM312.54,113.33L314.14,113.29L311.18,110.87C309.55,109.54 308.01,108.65 307.77,108.9C307.52,109.15 308.13,110.25 309.13,111.36L310.95,113.36L312.54,113.33L312.54,113.33ZM254.89,235.14C251.18,235.04 245.89,234.67 243.14,234.32L238.14,233.68L249.89,233.52L253.608,233.469L261.64,233.36L261.64,235.31L254.89,235.14L254.89,235.14ZM340.14,235.11C336.29,235.12 331.79,234.83 330.14,234.47L327.14,233.81L328.64,233.23L330.14,232.64L347.14,235.1L340.14,235.11L340.14,235.11ZM269.14,233.03C266.012,232.957 261.933,232.805 259.114,232.659C258.463,232.625 257.879,232.592 257.39,232.56L252.64,232.25L252.64,231.31L252.64,230.36L254.39,230.42C255.35,230.45 260.64,231.09 266.14,231.83L276.14,233.19L269.14,233.03L269.14,233.03ZM270.71,130.36C270.3,130.36 269.71,130.1 269.4,129.79L268.82,129.21L270.79,125.52L272.76,121.83L275.95,119.97C277.7,118.94 281.28,117.53 283.89,116.82L288.64,115.54L288.64,116.25C288.64,116.64 286.95,117.55 284.89,118.27C282.83,118.98 279.39,120.75 277.26,122.19L273.38,124.82L272.41,127.59C271.88,129.12 271.11,130.36 270.71,130.36L270.71,130.36Z" style="fill:rgb(13,72,36);fill-rule:nonzero;"/>
    </g>
    <g id="path22112" transform="matrix(-7.48155,0,-0,7.48155,2843.66,-764.793)">
        <path d="M356.64,236.29C355.26,236.25 352.46,235.6 350.4,234.85C348.35,234.09 344.72,232.14 342.34,230.5L338.01,227.52L334.26,222.95L330.51,218.37L326.87,210.62L323.23,202.86L323.19,193.36L323.14,183.86L324.89,180.46C325.85,178.59 326.64,176.58 326.64,176L326.64,174.94L325.25,176.4C324.49,177.2 321.83,182.57 319.35,188.33L314.83,198.8L320.61,204.72L321.21,207.88C321.53,209.62 321.69,211.68 321.56,212.45C321.43,213.23 321.69,214.72 322.14,215.76L322.96,217.65L321.05,219.07L319.14,220.48L316.64,219.88C315.26,219.55 312.46,218.91 310.4,218.45L306.66,217.64L305.76,218.75C305.27,219.36 304.55,221.37 304.15,223.22L303.43,226.57L299.59,230.41L295.75,234.25L292.22,234.91L288.69,235.58L283.63,234.36L278.56,233.15L272.77,228.88L266.97,224.61L262.87,218.47L258.77,212.33L256.53,206.6L254.29,200.86L254.01,192.36L253.74,183.86L255.94,179.66L258.14,175.45L260.96,173.28L263.79,171.1L267.99,170.63L272.2,170.15L275.96,171.73L279.73,173.3L280.16,172.08C280.39,171.41 281.04,168.75 281.6,166.17L282.62,161.48L282.02,159.92C281.69,159.06 281.04,158.36 280.56,158.36L279.7,158.36L278.68,155.11L277.66,151.86L278.36,157.36L277.25,157.35C276.64,157.34 274.38,156.33 272.23,155.1L268.33,152.86L266.23,150.04L264.14,147.22L264.14,140.21L264.14,133.2L266.09,131.77L268.05,130.34L270.09,132.78C271.22,134.13 273.71,136.15 275.64,137.29L279.14,139.36L282.99,139.36L280.79,141.7L278.59,144.04L277.69,147.19L276.79,150.34L277.74,150.92L278.69,151.51L278.54,150.69C278.47,150.23 278.45,149.03 278.52,148.01L278.64,146.16L281.92,142.88L285.2,139.61L282.09,138.48L278.98,137.36L276.76,134.99L274.53,132.62L276.12,132.01L277.71,131.4L278.3,132.92L278.89,134.45L282.72,136.41C284.83,137.48 286.83,138.36 287.15,138.36C287.48,138.36 286.49,137.28 284.94,135.95L282.14,133.53L282.88,132.79L283.63,132.04L285.77,133.95L287.9,135.86L287.1,133.36C286.65,131.99 286.37,129.81 286.46,128.52C286.55,127.24 286.88,125.78 287.19,125.27C287.5,124.77 288.17,124.36 288.67,124.36L289.59,124.36L289.06,127.11L288.53,129.86L291.29,141.86L295.46,142.17L299.64,142.48L299.64,136.48L299.64,130.48L300.57,129.91L301.49,129.33L302.14,131.36L302.78,133.39L305.35,131.38L307.91,129.36L311.95,129.36L310.35,127.59C309.46,126.62 308.26,124.71 307.67,123.34L306.59,120.86L307.13,123.61L307.68,126.36L306.9,126.36C306.47,126.36 305.55,125.45 304.85,124.33L303.57,122.29L300.82,123.92L298.06,125.54L294.6,124.03L291.14,122.53L294.34,122.45L297.54,122.36L300.09,121.2C301.49,120.56 302.64,119.7 302.64,119.28C302.64,118.87 302.91,117.82 303.25,116.95L303.85,115.36L300.3,115.36L296.76,115.36L296.14,114.36L295.52,113.36L303.64,113.36L303.64,110.55L303.64,107.74L305.68,105.55L307.72,103.36L315.74,103.36L318.64,104.86L321.53,106.36L324.09,109.71L326.64,113.05L326.64,116.63L324.14,118.95L321.64,121.27L321.64,126.36L320.38,126.36L319.12,126.36L317.89,128.33L316.66,130.3L318.51,131.3L320.36,132.29L322.53,129.98L324.69,127.67L324.02,125.77L323.34,123.86L324.51,124.94C325.16,125.53 325.86,126.94 326.08,128.08C326.3,129.23 327.63,131.97 329.02,134.18C330.42,136.39 332.06,138.5 332.66,138.88C333.27,139.26 335.12,141.43 336.77,143.7L339.77,147.84L343.95,149.85L348.14,151.86L352.96,160.68L350.72,162.5L348.47,164.32L344.37,164.05L340.27,163.77L339.87,162.57L339.47,161.36L342.06,161.36L337.14,156.36C334.43,153.61 331.84,151.36 331.38,151.36C330.92,151.36 329.46,152.53 328.14,153.95L325.74,156.54L324.76,155.94L323.78,155.33L323.16,156.33L322.54,157.34L325.25,162.1C326.74,164.72 329.07,167.94 330.42,169.26L332.88,171.66L338.51,171.85L344.14,172.03L349.1,174.4L354.05,176.78L359.74,182.46L365.42,188.15L369.09,195.56L372.75,202.98L375.01,216.14L373.79,221.56L372.58,226.98L369.57,230.64L366.55,234.29L362.84,235.32C360.81,235.89 358.01,236.32 356.64,236.29L356.64,236.29ZM357,233.29L359.87,233.36L363.66,231.23L367.45,229.1L369.3,225L371.14,220.9L371.03,213.88L370.92,206.86L368.68,201.04L366.44,195.22L361.78,189.04L357.12,182.86L352.28,179.62L347.45,176.39L343.63,175.24L339.82,174.1L337.29,174.74L334.75,175.37L341.26,186.12C344.84,192.03 348.86,198.01 350.2,199.42C351.54,200.82 352.64,202.29 352.64,202.67C352.64,203.05 352.17,203.36 351.61,203.36L350.58,203.36L349.96,201.61C349.63,200.65 348.13,198.51 346.65,196.86C345.16,195.21 341.74,190.3 339.04,185.95C336.34,181.59 333.82,177.55 333.43,176.96L332.72,175.88L331.58,177.02L330.43,178.17L335.11,188.65L339.8,199.14L345.64,204.74L345.64,207.61L342.38,204.06L339.13,200.51L334.17,190.44C331.45,184.9 328.9,180.36 328.51,180.36C328.11,180.36 327.25,182 326.6,183.99L325.4,187.63L325.84,195.32L326.29,203.02L329.34,209.44C331.01,212.97 333.81,217.8 335.56,220.16L338.72,224.47L343.25,227.66C345.74,229.42 349.2,231.39 350.95,232.04C352.71,232.68 355.43,233.25 357,233.29L357,233.29ZM288.49,232.28L290.84,232.36L294.31,230.71L297.79,229.06L299.25,226.84C300.05,225.61 301.13,223.12 301.66,221.3C302.18,219.48 302.5,217.9 302.37,217.78C302.24,217.66 297.86,217.24 292.64,216.86C287.41,216.47 282.76,215.93 282.31,215.65L281.48,215.15L282.08,212.75L282.68,210.36L282.05,207.86L281.42,205.36L277.42,205.36L273.42,205.36L274.1,202.67C274.47,201.2 275.87,194.6 277.21,188.01C278.55,181.43 279.53,175.95 279.39,175.85C279.25,175.75 277.61,175.14 275.74,174.51C273.87,173.88 271.12,173.36 269.64,173.36L266.93,173.36L263.64,175.61L260.34,177.86L258.42,181.36L256.5,184.86L256.92,192.86L257.33,200.86L259.97,207.25L262.61,213.65L266.71,218.95L270.8,224.26L275.67,227.39C278.35,229.1 281.8,230.89 283.34,231.35C284.88,231.81 287.2,232.23 288.49,232.28L288.49,232.28ZM301.95,216.22L302.76,216.36L302.45,212.64L302.14,208.91L298.14,208.27C295.94,207.92 292.03,207.36 289.46,207.03L284.78,206.42L284.11,209.49L283.44,212.56L284.45,213.58L285.47,214.59L293.3,215.34C297.61,215.75 301.5,216.15 301.95,216.22L301.95,216.22ZM307.91,216.36L309.95,216.36L308.4,214.61L306.86,212.86L306.17,209.6L305.48,206.35L304.76,206.79L304.04,207.23L304.22,209.55C304.31,210.82 304.72,212.88 305.13,214.11L305.87,216.36L307.91,216.36ZM319.29,212.36C319.48,212.36 319.64,211.24 319.64,209.86L319.64,207.36L317.64,207.36L315.64,207.36L315.64,208.03C315.64,208.4 316.38,209.53 317.29,210.53C318.2,211.54 319.1,212.36 319.29,212.36ZM298.64,206.15L301.14,206.18L293.77,204.23L286.39,202.28L285.85,202.82L285.3,203.36L285.87,203.93C286.19,204.25 288.62,204.87 291.29,205.31C293.96,205.76 297.26,206.14 298.64,206.15ZM314.39,206.35C315.35,206.34 316.71,205.97 317.41,205.52L318.69,204.72L316.6,202.83L314.52,200.94L313.59,202.4C313.08,203.21 312.66,204.43 312.65,205.11L312.64,206.36L314.39,206.35L314.39,206.35ZM304.02,205.36C304.23,205.36 304.63,204.51 304.9,203.47L305.39,201.58L304.53,200.22L303.67,198.86L303.65,202.11C303.65,203.9 303.81,205.36 304.02,205.36ZM280.19,204.36C280.28,204.36 280.16,203.29 279.9,201.97L279.45,199.58L280.95,197.22L282.45,194.86L283.14,186.73L283.83,178.6L282.8,177.97L281.78,177.33L281.29,179.1C281.02,180.07 279.8,185.55 278.59,191.29L276.39,201.71L278.2,203.04C279.2,203.77 280.1,204.36 280.19,204.36L280.19,204.36ZM309.29,202.83C310.03,201.81 310.64,200.62 310.64,200.17L310.64,199.36L308.78,199.36L306.92,199.36L307.42,202.02L307.93,204.68L309.29,202.83ZM298.89,203.25L300.64,203.36L300.64,202.02L300.64,200.68L296.77,199.52C294.65,198.88 291.27,198.36 289.27,198.36L285.64,198.36L285.64,200.29L289.39,201.25C291.45,201.78 294.04,202.42 295.14,202.67C296.24,202.92 297.93,203.18 298.89,203.25L298.89,203.25ZM289.52,197.36L295.64,197.36L295.64,196.38L295.64,195.39L291.56,192.81L287.48,190.24L288.12,186.47L288.76,182.71L287.29,181.49L285.83,180.28L285.26,184.07C284.95,186.16 284.4,190 284.05,192.61L283.41,197.36L289.52,197.36ZM311.25,197.36L312.26,197.36L316.45,188.18L320.65,178.99L319.39,178.19C318.7,177.75 317.3,177.39 316.28,177.38L314.42,177.36L315,175.86L315.58,174.35L311.86,172.03C309.81,170.75 305.28,168.19 301.78,166.34L295.43,162.97L294.05,160.87L292.67,158.77L291.26,150.32L289.84,141.86L289.74,144.28C289.68,145.61 290.14,149.57 290.75,153.09L291.86,159.48L294.17,162.17L296.47,164.86L312.59,173.86L312.61,184.41L312.64,194.96L311.44,196.16L310.24,197.36L311.25,197.36ZM302.44,189.36C302.63,189.36 302.51,188.54 302.2,187.54L301.62,185.72L302.47,179.49L303.32,173.26L301.23,171.78L299.14,170.3L297.85,174.77L296.56,179.24L297.31,183.55L299.71,186.45C301.04,188.05 302.26,189.36 302.44,189.36L302.44,189.36ZM289.44,175.33L289.75,171.44L288.47,169.15L287.19,166.86L286.58,171.86L285.98,176.86L289.14,179.22L289.44,175.33L289.44,175.33ZM283.37,175.36L284.37,175.36L285,170.72C285.35,168.17 285.62,165.13 285.61,163.97L285.58,161.86L284.67,163.42C284.17,164.27 283.45,167.31 283.07,170.17L282.38,175.36L283.37,175.36ZM329.64,174.36L330.64,174.36L330.64,173.3L330.64,172.25L329.64,172.86C329.09,173.2 328.64,173.68 328.64,173.92C328.64,174.17 329.09,174.36 329.64,174.36ZM321.39,169.35L322.64,169.36L322.64,168.41C322.64,167.88 321.49,166.31 320.09,164.91L317.55,162.36L313.79,162.36L310.04,162.36L308.84,161.16C308.18,160.5 307.64,159.65 307.64,159.26L307.64,158.55L311.68,159.1L315.72,159.64L317.17,157.75L318.63,155.86L318.12,153.64L317.61,151.41L320.49,151.98L323.36,152.56L326.46,150.96L329.55,149.36L326.34,144.14C324.58,141.27 321.45,137.23 319.39,135.15L315.64,131.36L312.29,131.36L308.93,131.36L305.55,133.65L302.16,135.93L301.53,139.81L300.9,143.69L301.68,146.28L302.47,148.86L302.55,146.99L302.64,145.12L304.26,146.46L305.87,147.8L305.34,152.97L304.81,158.13L307.97,161.18C309.71,162.86 313.16,165.38 315.64,166.78C318.11,168.19 320.7,169.34 321.39,169.35L321.39,169.35ZM289.2,163.36C289.44,163.36 289.64,162.91 289.64,162.36L289.64,161.36L288.58,161.36L287.52,161.36L288.14,162.36C288.48,162.91 288.95,163.36 289.2,163.36ZM302.3,155.61L302.81,154.36L302.3,153.11L301.8,151.86L301.8,156.86L302.3,155.61ZM346.89,156.25C347.3,156.31 347.64,155.92 347.64,155.39C347.64,154.85 346.5,153.66 345.11,152.75C343.71,151.84 342.35,151.31 342.08,151.58C341.81,151.86 341.87,152.79 342.2,153.66L342.81,155.25L344.47,155.69C345.39,155.93 346.48,156.18 346.89,156.25L346.89,156.25ZM302.14,151.36C302.41,151.36 302.64,151.14 302.64,150.86C302.64,150.59 302.41,150.36 302.14,150.36C301.86,150.36 301.64,150.59 301.64,150.86C301.64,151.14 301.86,151.36 302.14,151.36ZM287.64,141.36L288.97,141.36L288.3,140.7L287.64,140.03L286.97,140.7L286.3,141.36L287.64,141.36ZM307.14,118.36C307.41,118.36 307.64,118.14 307.64,117.86C307.64,117.59 307.41,117.36 307.14,117.36C306.86,117.36 306.64,117.59 306.64,117.86C306.64,118.14 306.86,118.36 307.14,118.36ZM319.53,113.1L319.92,112.01L316.29,108.69L312.67,105.36L310.4,105.41L308.14,105.45L311.84,107.41L315.54,109.36L319.14,114.18L319.53,113.1ZM312.54,113.33L314.14,113.29L311.18,110.87C309.55,109.54 308.01,108.65 307.77,108.9C307.52,109.15 308.13,110.25 309.13,111.36L310.95,113.36L312.54,113.33L312.54,113.33ZM254.89,235.14C251.18,235.04 245.89,234.67 243.14,234.32L238.14,233.68L249.89,233.52L253.608,233.469L261.64,233.36L261.64,235.31L254.89,235.14L254.89,235.14ZM340.14,235.11C336.29,235.12 331.79,234.83 330.14,234.47L327.14,233.81L328.64,233.23L330.14,232.64L347.14,235.1L340.14,235.11L340.14,235.11ZM269.14,233.03C266.012,232.957 261.933,232.805 259.114,232.659C258.463,232.625 257.879,232.592 257.39,232.56L252.64,232.25L252.64,231.31L252.64,230.36L254.39,230.42C255.35,230.45 260.64,231.09 266.14,231.83L276.14,233.19L269.14,233.03L269.14,233.03ZM270.71,130.36C270.3,130.36 269.71,130.1 269.4,129.79L268.82,129.21L270.79,125.52L272.76,121.83L275.95,119.97C277.7,118.94 281.28,117.53 283.89,116.82L288.64,115.54L288.64,116.25C288.64,116.64 286.95,117.55 284.89,118.27C282.83,118.98 279.39,120.75 277.26,122.19L273.38,124.82L272.41,127.59C271.88,129.12 271.11,130.36 270.71,130.36L270.71,130.36Z" style="fill:rgb(77,77,77);fill-rule:nonzero;"/>
    </g>
</svg>
