<?xml version="1.0" standalone="no"?>
<!DOCTYPE svg PUBLIC "-//W3C//DTD SVG 1.1//EN" "http://www.w3.org/Graphics/SVG/1.1/DTD/svg11.dtd">
<svg width="100%" height="100%" viewBox="0 0 400 80" version="1.1" xmlns="http://www.w3.org/2000/svg" xmlns:xlink="http://www.w3.org/1999/xlink" xml:space="preserve" style="fill-rule:evenodd;clip-rule:evenodd;stroke-miterlimit:1.41421;">
    <g transform="matrix(0.659384,0,0,0.677384,-33.0448,-33.8065)">
        <path d="M129.444,62.831C129.248,63.299 125.118,72.204 117.053,89.546C108.987,106.888 101.283,123.604 93.94,139.696L86.148,139.696C78.063,121.651 70.33,104.603 62.948,88.55C55.566,72.497 51.699,64.08 51.348,63.299L60.487,58.73C60.761,59.511 64.286,67.644 71.062,83.131C77.839,98.617 84.371,113.195 90.659,126.866L90.776,126.866C97.182,112.844 103.832,98.08 110.725,82.574C117.619,67.068 121.183,59.081 121.417,58.612L129.444,62.831Z" style="fill:rgb(129,0,0);fill-rule:nonzero;stroke-width:0.52px;stroke:rgb(129,0,0);"/>
        <path d="M151.589,67.869L141.278,67.869L141.278,57.792L151.589,57.792L151.589,67.869ZM151.062,138.524L141.805,138.524C141.844,137.899 141.893,134.052 141.952,126.983C142.01,119.913 142.04,114.074 142.04,109.465C142.04,105.443 142.03,101.019 142.01,96.196C141.991,91.372 141.923,85.718 141.805,79.235L151.062,79.235C150.984,84.859 150.916,90.122 150.857,95.024C150.798,99.926 150.769,104.29 150.769,108.118C150.769,117.218 150.818,124.522 150.916,130.029C151.013,135.536 151.062,138.368 151.062,138.524Z" style="fill:rgb(129,0,0);fill-rule:nonzero;stroke-width:0.19px;stroke:rgb(129,0,0);"/>
        <path d="M205.313,121.359C205.313,124.249 204.61,126.827 203.204,129.092C201.798,131.357 199.962,133.193 197.697,134.599C195.314,136.083 192.492,137.206 189.231,137.968C185.97,138.729 182.367,139.11 178.422,139.11C176.508,139.11 174.526,139.022 172.475,138.847C170.425,138.671 169.263,138.563 168.989,138.524L168.638,130.85C168.989,130.889 170.347,130.996 172.71,131.172C175.073,131.348 177.426,131.435 179.769,131.435C181.136,131.435 182.894,131.318 185.042,131.084C187.19,130.85 188.967,130.42 190.374,129.795C192.326,128.936 193.772,127.881 194.709,126.631C195.646,125.381 196.115,123.878 196.115,122.12C196.115,120.519 195.705,119.22 194.885,118.224C194.064,117.228 192.932,116.262 191.487,115.324C189.924,114.27 187.786,113.147 185.071,111.955C182.357,110.764 180.082,109.622 178.246,108.528C175.629,106.927 173.628,105.032 172.241,102.845C170.854,100.658 170.161,98.119 170.161,95.229C170.161,92.339 170.952,89.741 172.534,87.437C174.116,85.133 176.235,83.277 178.891,81.871C181.195,80.621 183.744,79.791 186.536,79.381C189.329,78.971 192.033,78.766 194.65,78.766C197.033,78.766 198.986,78.805 200.509,78.883C202.032,78.961 202.911,79 203.145,79L203.79,86.792C203.516,86.792 202.315,86.714 200.187,86.558C198.058,86.402 195.724,86.324 193.186,86.324C191.389,86.324 189.68,86.48 188.059,86.792C186.438,87.105 185.062,87.554 183.929,88.14C182.25,88.999 181.049,90.034 180.326,91.245C179.603,92.456 179.242,93.628 179.242,94.76C179.242,96.323 179.75,97.67 180.765,98.803C181.781,99.935 182.972,100.892 184.339,101.673C185.941,102.611 188.128,103.724 190.901,105.013C193.674,106.302 195.685,107.337 196.935,108.118C199.669,109.837 201.749,111.75 203.175,113.859C204.6,115.969 205.313,118.468 205.313,121.359Z" style="fill:rgb(129,0,0);fill-rule:nonzero;stroke-width:0.31px;stroke:rgb(129,0,0);"/>
        <path d="M270.168,138.524L261.205,138.524L261.205,131.728L261.146,131.67C258.412,133.466 255.004,135.312 250.923,137.206C246.841,139.1 242.828,140.048 238.883,140.048C233.493,140.048 229.275,138.446 226.228,135.244C223.182,132.041 221.659,127.549 221.659,121.769C221.659,118.644 221.688,114.924 221.747,110.608C221.805,106.292 221.834,103.158 221.834,101.205C221.834,97.651 221.786,93.266 221.688,88.052C221.59,82.838 221.542,79.899 221.542,79.235L230.798,79.235C230.798,79.743 230.759,82.555 230.681,87.671C230.603,92.788 230.564,96.869 230.564,99.916C230.564,102.611 230.583,105.97 230.622,109.993C230.662,114.016 230.681,116.867 230.681,118.546C230.759,123.155 231.56,126.534 233.083,128.682C234.606,130.83 237.067,131.904 240.465,131.904C243.941,131.904 247.759,130.967 251.919,129.092C256.078,127.217 259.135,125.577 261.087,124.171C261.087,123.702 261.107,121.544 261.146,117.697C261.185,113.85 261.205,109.055 261.205,103.314C261.205,99.213 261.156,94.301 261.058,88.579C260.961,82.857 260.912,79.743 260.912,79.235L270.168,79.235C270.168,79.899 270.129,82.096 270.051,85.826C269.973,89.556 269.934,95.912 269.934,104.896C269.934,109.934 269.954,114.357 269.993,118.166C270.032,121.974 270.09,128.76 270.168,138.524Z" style="fill:rgb(129,0,0);fill-rule:nonzero;stroke-width:0.36px;stroke:rgb(129,0,0);"/>
        <path d="M332.329,105.13C332.329,114.816 332.309,122.706 332.27,128.799C332.231,134.892 332.211,138.173 332.211,138.642C331.821,138.681 330.005,138.827 326.763,139.081C323.521,139.335 319.342,139.462 314.225,139.462C311.023,139.462 307.8,139.169 304.559,138.583C301.317,137.997 298.524,137.157 296.181,136.064C293.056,134.619 290.527,132.646 288.594,130.147C286.66,127.647 285.694,124.639 285.694,121.124C285.694,117.414 286.836,114.201 289.121,111.487C291.406,108.772 294.579,106.575 298.641,104.896C301.18,103.841 304.568,102.894 308.806,102.054C313.044,101.215 317.877,100.58 323.306,100.15C323.072,97.104 322.31,94.604 321.021,92.651C319.733,90.698 317.838,89.214 315.339,88.199C313.62,87.496 311.706,86.998 309.597,86.705C307.488,86.412 305.027,86.265 302.215,86.265C300.458,86.265 298.964,86.304 297.733,86.382C296.503,86.461 294.833,86.558 292.724,86.675L293.662,78.883C294.247,78.844 295.409,78.776 297.147,78.678C298.886,78.581 301.258,78.532 304.266,78.532C308.875,78.532 312.985,79.01 316.598,79.967C320.211,80.924 323.209,82.477 325.591,84.625C327.817,86.656 329.497,89.165 330.63,92.153C331.762,95.141 332.329,99.467 332.329,105.13ZM323.365,119.249C323.365,117.921 323.365,116.242 323.365,114.211C323.365,112.18 323.345,109.837 323.306,107.181C321.588,107.259 318.58,107.6 314.284,108.206C309.988,108.811 306.375,109.68 303.445,110.813C301.258,111.633 299.315,112.863 297.616,114.504C295.917,116.144 295.068,118.175 295.068,120.597C295.068,123.253 295.79,125.391 297.235,127.012C298.68,128.633 300.653,129.873 303.153,130.732C305.066,131.396 307.185,131.875 309.509,132.168C311.833,132.461 314.284,132.607 316.862,132.607C317.643,132.607 318.6,132.588 319.733,132.549C320.865,132.509 322.056,132.47 323.306,132.431C323.306,132.158 323.316,130.869 323.336,128.565C323.355,126.26 323.365,123.155 323.365,119.249Z" style="fill:rgb(129,0,0);fill-rule:nonzero;stroke-width:0.35px;stroke:rgb(129,0,0);"/>
        <path d="M363.145,138.524L353.888,138.524C353.928,138.056 353.976,132.343 354.035,121.388C354.094,110.432 354.123,101.341 354.123,94.116C354.123,89.468 354.113,83.6 354.094,76.511C354.074,69.422 354.006,61.464 353.888,52.637L363.145,52.637C363.067,58.651 363.008,65.613 362.969,73.523C362.93,81.432 362.911,88.101 362.911,93.53C362.911,105.364 362.95,115.715 363.028,124.581C363.106,133.447 363.145,138.095 363.145,138.524Z" style="fill:rgb(129,0,0);fill-rule:nonzero;stroke-width:0.19px;stroke:rgb(129,0,0);"/>
        <path d="M440.128,131.318C440.089,131.67 439.981,132.656 439.806,134.277C439.63,135.898 439.464,137.665 439.308,139.579L437.257,139.579C427.727,139.579 419.251,138.378 411.831,135.976C404.41,133.574 398.317,130.088 393.552,125.518C390.232,122.354 387.605,118.566 385.672,114.152C383.738,109.739 382.772,104.7 382.772,99.037C382.772,93.96 383.729,89.321 385.642,85.123C387.556,80.924 390.056,77.262 393.141,74.138C397.633,69.607 403.667,66.014 411.245,63.358C418.822,60.702 426.926,59.374 435.558,59.374L438.194,59.374C438.233,60.077 438.312,61.2 438.429,62.743C438.546,64.286 438.683,65.955 438.839,67.752L436.847,67.752C431.965,67.752 426.907,68.289 421.673,69.363C416.439,70.437 411.928,72.048 408.14,74.196C403.218,77.009 399.43,80.612 396.774,85.006C394.118,89.4 392.79,94.135 392.79,99.213C392.79,104.486 393.981,109.28 396.364,113.596C398.746,117.912 402.515,121.534 407.671,124.464C411.889,126.885 416.605,128.643 421.82,129.736C427.034,130.83 432.219,131.377 437.374,131.377C437.609,131.377 437.98,131.377 438.487,131.377C438.995,131.377 439.542,131.357 440.128,131.318Z" style="fill:rgb(77,77,77);fill-rule:nonzero;stroke-width:1.43px;stroke-linejoin:round;stroke:rgb(129,0,0);"/>
        <path d="M504.632,81.637C497.015,98.432 488.999,116.271 480.582,135.156C472.165,154.04 467.683,164.088 467.136,165.298L459.051,162.31L471.179,137.177C470.866,136.396 468.415,130.693 463.826,120.07C459.237,109.446 453.642,96.752 447.041,81.988L455.829,78.18C460.125,89.038 464.5,99.769 468.952,110.374C473.405,120.978 475.748,126.553 475.983,127.1L476.1,127.1C476.334,126.709 478.561,121.515 482.779,111.516C486.997,101.517 491.606,90.483 496.605,78.415L504.632,81.637Z" style="fill:rgb(77,77,77);fill-rule:nonzero;stroke-width:1.5px;stroke-linejoin:round;stroke:rgb(129,0,0);"/>
        <path d="M557.769,130.908L557.066,138.759L553.844,138.759C548.806,138.759 544.099,138.28 539.725,137.323C535.35,136.366 531.425,134.951 527.949,133.076C523.223,130.498 519.532,127.08 516.876,122.823C514.22,118.566 512.892,113.82 512.892,108.587C512.892,103.9 514.103,99.594 516.525,95.668C518.946,91.743 522.11,88.531 526.016,86.031C529.531,83.766 533.739,82.037 538.641,80.846C543.543,79.655 548.61,79.059 553.844,79.059L556.246,79.059L556.715,86.91L554.899,86.91C550.563,86.91 546.863,87.173 543.797,87.701C540.731,88.228 537.752,89.097 534.862,90.308C530.995,91.87 527.929,94.331 525.664,97.69C523.399,101.049 522.266,104.642 522.266,108.469C522.266,113.039 523.33,116.877 525.459,119.982C527.588,123.087 530.41,125.479 533.925,127.159C536.659,128.487 539.744,129.443 543.181,130.029C546.619,130.615 550.251,130.908 554.079,130.908L557.769,130.908Z" style="fill:rgb(77,77,77);fill-rule:nonzero;stroke-width:1.09px;stroke-linejoin:round;stroke:rgb(129,0,0);"/>
        <path d="M583.079,138.524L573.822,138.524C573.861,138.056 573.91,132.343 573.969,121.388C574.027,110.432 574.057,101.341 574.057,94.116C574.057,89.468 574.047,83.6 574.027,76.511C574.008,69.422 573.939,61.464 573.822,52.637L583.079,52.637C583.001,58.651 582.942,65.613 582.903,73.523C582.864,81.432 582.845,88.101 582.845,93.53C582.845,105.364 582.884,115.715 582.962,124.581C583.04,133.447 583.079,138.095 583.079,138.524Z" style="fill:rgb(77,77,77);fill-rule:nonzero;stroke-width:0.6px;stroke-linejoin:round;stroke:rgb(129,0,0);"/>
        <path d="M650.863,106.712L608.505,106.712C608.544,110.852 609.423,114.65 611.142,118.107C612.86,121.564 615.497,124.425 619.051,126.69C621.316,128.135 623.894,129.219 626.784,129.941C629.675,130.664 633.151,131.025 637.213,131.025C639.439,131.025 641.48,130.967 643.335,130.85C645.19,130.732 646.333,130.654 646.762,130.615L645.708,138.407C645.395,138.446 644.36,138.515 642.603,138.612C640.845,138.71 638.775,138.759 636.393,138.759C630.143,138.759 624.705,137.948 620.076,136.327C615.448,134.706 611.65,132.47 608.681,129.619C606.142,127.237 603.984,124.19 602.207,120.48C600.43,116.769 599.542,112.649 599.542,108.118C599.542,103.665 600.206,99.642 601.534,96.049C602.862,92.456 604.854,89.116 607.509,86.031C609.814,83.375 612.675,81.324 616.092,79.879C619.51,78.434 623.054,77.712 626.726,77.712C630.358,77.712 633.58,78.258 636.393,79.352C639.205,80.446 641.646,82.106 643.716,84.332C646.02,86.832 647.778,89.907 648.989,93.559C650.199,97.211 650.824,101.595 650.863,106.712ZM641.783,100.15C641.158,95.307 639.507,91.509 636.832,88.755C634.157,86.002 630.632,84.625 626.257,84.625C621.883,84.625 618.231,86.021 615.301,88.814C612.372,91.606 610.341,95.385 609.208,100.15L641.783,100.15Z" style="fill:rgb(77,77,77);fill-rule:nonzero;stroke-width:1.18px;stroke-linejoin:round;stroke:rgb(129,0,0);"/>
    </g>
</svg>
